<?xml version="1.0" encoding="UTF-8"?>
<svg width="28px" height="28px" viewBox="0 0 28 28" version="1.1" xmlns="http://www.w3.org/2000/svg" xmlns:xlink="http://www.w3.org/1999/xlink">
    <!-- Generator: sketchtool 52.6 (67491) - http://www.bohemiancoding.com/sketch -->
    <title>F1157CA8-BC9E-4961-A941-0792862B2F12</title>
    <desc>Created with sketchtool.</desc>
    <g id="Page-1" stroke="none" stroke-width="1" fill="none" fill-rule="evenodd">
        <g id="index" transform="translate(-1288.000000, -41.000000)" fill="#FFFFFF">
            <g id="header" transform="translate(120.000000, 40.000000)">
                <path d="M1181.9998,27 C1178.8258,27 1175.9438,25.752 1173.7958,23.733 C1175.3118,21.064 1178.0028,19.322 1181.9998,19.322 C1185.9968,19.322 1188.6878,21.064 1190.2038,23.733 C1188.0558,25.752 1185.1748,27 1181.9998,27 M1181.9998,7.322 C1184.7618,7.322 1186.9998,9.561 1186.9998,12.322 C1186.9998,15.084 1184.7618,17.322 1181.9998,17.322 C1179.2388,17.322 1176.9998,15.084 1176.9998,12.322 C1176.9998,9.561 1179.2388,7.322 1181.9998,7.322 M1181.9998,1 C1174.2688,1 1167.9998,7.268 1167.9998,15 C1167.9998,19.277 1169.9238,23.101 1172.9468,25.669 C1175.3898,27.743 1178.5458,29 1181.9998,29 C1185.4548,29 1188.6108,27.743 1191.0538,25.669 C1194.0768,23.101 1195.9998,19.277 1195.9998,15 C1195.9998,7.268 1189.7318,1 1181.9998,1" id="account"></path>
            </g>
        </g>
    </g>
</svg>