<?xml version="1.0" encoding="UTF-8"?>
<svg width="18px" height="18px" viewBox="0 0 18 18" version="1.1" xmlns="http://www.w3.org/2000/svg" xmlns:xlink="http://www.w3.org/1999/xlink">
    <!-- Generator: sketchtool 52.6 (67491) - http://www.bohemiancoding.com/sketch -->
    <title>D1BB4166-D58A-4AE2-AC2A-9ACD86DE78F8</title>
    <desc>Created with sketchtool.</desc>
    <defs>
        <polygon id="path-1" points="0 -0.0003 17.393 -0.0003 17.393 17.3926 0 17.3926"></polygon>
    </defs>
    <g id="Page-1" stroke="none" stroke-width="1" fill="none" fill-rule="evenodd">
        <g id="index" transform="translate(-865.000000, -2274.000000)">
            <g id="footer" transform="translate(0.000000, 2099.000000)">
                <g id="inst" transform="translate(865.000000, 175.000000)">
                    <mask id="mask-2" fill="white">
                        <use xlink:href="#path-1"></use>
                    </mask>
                    <g id="Clip-2"></g>
                    <path d="M13.3384,5.0977 C12.7624,5.0977 12.2954,4.6307 12.2954,4.0537 C12.2954,3.4777 12.7624,3.0107 13.3384,3.0107 C13.9144,3.0107 14.3824,3.4777 14.3824,4.0537 C14.3824,4.6307 13.9144,5.0977 13.3384,5.0977 M8.6964,12.2947 C6.7094,12.2947 5.0984,10.6837 5.0984,8.6967 C5.0984,6.7087 6.7094,5.0977 8.6964,5.0977 C10.6844,5.0977 12.2954,6.7087 12.2954,8.6967 C12.2954,10.6837 10.6844,12.2947 8.6964,12.2947 M17.3414,5.1107 C17.2984,4.1847 17.1514,3.5527 16.9364,2.9997 C16.7144,2.4287 16.4164,1.9427 15.9334,1.4597 C15.4504,0.9757 14.9654,0.6787 14.3934,0.4567 C13.8404,0.2417 13.2074,0.0947 12.2824,0.0527 C11.3554,0.0097 11.0584,-0.0003 8.6964,-0.0003 C6.3344,-0.0003 6.0384,0.0097 5.1104,0.0527 C4.1854,0.0947 3.5534,0.2417 3.0004,0.4567 C2.4284,0.6787 1.9424,0.9757 1.4594,1.4597 C0.9764,1.9427 0.6794,2.4287 0.4564,2.9997 C0.2414,3.5527 0.0944,4.1847 0.0524,5.1107 C0.0104,6.0387 -0.0006,6.3347 -0.0006,8.6967 C-0.0006,11.0577 0.0104,11.3547 0.0524,12.2827 C0.0944,13.2077 0.2414,13.8397 0.4564,14.3927 C0.6794,14.9647 0.9764,15.4507 1.4594,15.9327 C1.9424,16.4167 2.4284,16.7137 3.0004,16.9367 C3.5534,17.1517 4.1854,17.2977 5.1104,17.3407 C6.0384,17.3827 6.3344,17.3927 8.6964,17.3927 C11.0584,17.3927 11.3554,17.3827 12.2824,17.3407 C13.2074,17.2977 13.8404,17.1517 14.3934,16.9367 C14.9654,16.7137 15.4504,16.4167 15.9334,15.9327 C16.4164,15.4507 16.7144,14.9647 16.9364,14.3927 C17.1514,13.8397 17.2984,13.2077 17.3414,12.2827 C17.3834,11.3547 17.3934,11.0577 17.3934,8.6967 C17.3934,6.3347 17.3834,6.0387 17.3414,5.1107" id="Fill-1" fill="#FFFFFF" mask="url(#mask-2)"></path>
                </g>
            </g>
        </g>
    </g>
</svg>