<?xml version="1.0" encoding="UTF-8"?>
<svg width="17px" height="14px" viewBox="0 0 17 14" version="1.1" xmlns="http://www.w3.org/2000/svg" xmlns:xlink="http://www.w3.org/1999/xlink">
    <!-- Generator: sketchtool 52.6 (67491) - http://www.bohemiancoding.com/sketch -->
    <title>9202F894-5949-4AE1-9977-E220558D8179</title>
    <desc>Created with sketchtool.</desc>
    <defs>
        <polygon id="path-1" points="0 0.0001 17.0369 0.0001 17.0369 13.8457 0 13.8457"></polygon>
    </defs>
    <g id="Page-1" stroke="none" stroke-width="1" fill="none" fill-rule="evenodd">
        <g id="index" transform="translate(-670.000000, -2276.000000)">
            <g id="footer" transform="translate(0.000000, 2099.000000)">
                <g id="twitter" transform="translate(670.000000, 177.000000)">
                    <mask id="mask-2" fill="white">
                        <use xlink:href="#path-1"></use>
                    </mask>
                    <g id="Clip-2"></g>
                    <path d="M17.0369,1.6391 C16.4109,1.9171 15.7369,2.1051 15.0299,2.1891 C15.7519,1.7571 16.3069,1.0721 16.5659,0.2561 C15.8909,0.6571 15.1439,0.9471 14.3459,1.1031 C13.7099,0.4241 12.8009,0.0001 11.7949,0.0001 C9.8659,0.0001 8.3009,1.5651 8.3009,3.4951 C8.3009,3.7691 8.3309,4.0351 8.3909,4.2911 C5.4859,4.1451 2.9119,2.7551 1.1859,0.6391 C0.8859,1.1571 0.7129,1.7571 0.7129,2.3971 C0.7129,3.6091 1.3299,4.6791 2.2679,5.3061 C1.6949,5.2891 1.1559,5.1301 0.6839,4.8701 L0.6839,4.9131 C0.6839,6.6071 1.8889,8.0201 3.4889,8.3401 C3.1949,8.4231 2.8869,8.4641 2.5679,8.4641 C2.3429,8.4641 2.1229,8.4421 1.9109,8.4011 C2.3539,9.7891 3.6449,10.8011 5.1749,10.8271 C3.9789,11.7651 2.4709,12.3241 0.8339,12.3241 C0.5519,12.3241 0.2729,12.3081 -0.0001,12.2761 C1.5469,13.2661 3.3849,13.8461 5.3579,13.8461 C11.7879,13.8461 15.3029,8.5201 15.3029,3.9011 C15.3029,3.7491 15.2999,3.5971 15.2939,3.4491 C15.9769,2.9551 16.5699,2.3401 17.0369,1.6391" id="Fill-1" fill="#FFFFFF" mask="url(#mask-2)"></path>
                </g>
            </g>
        </g>
    </g>
</svg>