<?xml version="1.0" encoding="UTF-8"?>
<svg width="21px" height="12px" viewBox="0 0 21 12" version="1.1" xmlns="http://www.w3.org/2000/svg" xmlns:xlink="http://www.w3.org/1999/xlink">
    <!-- Generator: sketchtool 52.6 (67491) - http://www.bohemiancoding.com/sketch -->
    <title>889EDC56-D41A-4EB7-B38D-7A5E8EEF9C32</title>
    <desc>Created with sketchtool.</desc>
    <defs>
        <polygon id="path-1" points="0 -0.000143333727 20.951 -0.000143333727 20.951 11.9525 0 11.9525"></polygon>
    </defs>
    <g id="Page-1" stroke="none" stroke-width="1" fill="none" fill-rule="evenodd">
        <g id="index" transform="translate(-600.000000, -2277.000000)">
            <g id="footer" transform="translate(0.000000, 2099.000000)">
                <g id="vk" transform="translate(600.000000, 178.000000)">
                    <mask id="mask-2" fill="white">
                        <use xlink:href="#path-1"></use>
                    </mask>
                    <g id="Clip-2"></g>
                    <path d="M18.6842,8.2547 C20.3602,9.8107 20.7072,10.5677 20.7642,10.6607 C21.4582,11.8127 19.9952,11.9017 19.9952,11.9017 L17.1972,11.9417 C17.1972,11.9417 16.5962,12.0607 15.8042,11.5177 C14.7582,10.7987 13.7712,8.9307 13.0022,9.1747 C12.2222,9.4227 12.2472,11.1027 12.2472,11.1027 C12.2472,11.1027 12.2522,11.4617 12.0752,11.6517 C11.8812,11.8597 11.5032,11.9017 11.5032,11.9017 L10.2502,11.9017 C10.2502,11.9017 7.4882,12.0687 5.0542,9.5347 C2.4002,6.7717 0.0572,1.2887 0.0572,1.2887 C0.0572,1.2887 -0.0788,0.9287 0.0682,0.7547 C0.2332,0.5597 0.6832,0.5467 0.6832,0.5467 L3.6762,0.5277 C3.6762,0.5277 3.9582,0.5747 4.1602,0.7227 C4.3272,0.8457 4.4202,1.0737 4.4202,1.0737 C4.4202,1.0737 4.9042,2.2977 5.5442,3.4047 C6.7952,5.5657 7.3782,6.0387 7.8022,5.8067 C8.4212,5.4697 8.2352,2.7517 8.2352,2.7517 C8.2352,2.7517 8.2462,1.7657 7.9242,1.3267 C7.6742,0.9857 7.2032,0.8867 6.9942,0.8587 C6.8262,0.8367 7.1022,0.4457 7.4602,0.2697 C7.9992,0.0057 8.9512,-0.0093 10.0752,0.0027 C10.9512,0.0117 11.2032,0.0667 11.5452,0.1487 C12.5772,0.3977 12.2272,1.3597 12.2272,3.6687 C12.2272,4.4077 12.0942,5.4477 12.6272,5.7927 C12.8562,5.9407 13.4172,5.8147 14.8202,3.4327 C15.4852,2.3037 15.9842,0.9767 15.9842,0.9767 C15.9842,0.9767 16.0922,0.7397 16.2622,0.6387 C16.4342,0.5347 16.6682,0.5667 16.6682,0.5667 L19.8192,0.5467 C19.8192,0.5467 20.7652,0.4347 20.9182,0.8617 C21.0802,1.3107 20.5652,2.3577 19.2782,4.0727 C17.1642,6.8897 16.9292,6.6257 18.6842,8.2547" id="Fill-1" fill="#FFFFFF" mask="url(#mask-2)"></path>
                </g>
            </g>
        </g>
    </g>
</svg>